<svg width="137" height="167" viewBox="0 0 137 167" fill="none" xmlns="http://www.w3.org/2000/svg">
<g filter="url(#filter0_f_28_181)">
<path d="M56.9593 99.7769L33.8056 111.667C30.7716 113.225 29.2546 114.004 29.2546 115.225C29.2546 116.446 30.7716 117.225 33.8055 118.783L87.2935 146.251C88.1995 146.716 88.6525 146.949 89.1411 146.946C89.6296 146.944 90.0804 146.707 90.9819 146.233L112.06 135.154C115.048 133.583 116.543 132.798 116.537 131.583C116.531 130.368 115.029 129.597 112.026 128.055L56.9593 99.7769Z" fill="#814FC4" fill-opacity="0.04"/>
</g>
<path d="M2.81989 101.756L5.51778 100.234L5.51778 80.1367L2.81989 81.6588L2.81989 101.756Z" fill="#B3CAE3"/>
<path d="M0.121185 100.234L2.81984 101.756L2.81984 81.6587L0.121185 80.1366L0.121185 100.234Z" fill="#93ACC8"/>
<path d="M66.5014 137.688L69.1993 136.166V116.069L66.5014 117.59V137.688Z" fill="#B3CAE3"/>
<path d="M63.8036 136.166L66.5023 137.688V117.59L63.8036 116.069V136.166Z" fill="#93ACC8"/>
<path d="M31.8178 84.973L34.5157 83.4508V63.3533L31.8178 64.8755V84.973Z" fill="#BC8742"/>
<path d="M29.1208 83.451L31.8188 84.9731V64.8756L29.1208 63.3535V83.451Z" fill="#93561D"/>
<path d="M95.4998 120.904L98.1985 119.382V99.2847L95.4998 100.807V120.904Z" fill="#B3CAE3"/>
<path d="M92.8024 119.382L95.5003 120.904V100.807L92.8024 99.2846V119.382Z" fill="#93ACC8"/>
<path d="M32.1918 0.978577L0.121277 19.0733L66.502 56.5266L98.1985 38.2211L32.1918 0.978577Z" fill="#B3CAE3"/>
<path d="M0.121338 84.7653L66.5021 122.219V56.5266L0.121338 19.0733L0.121338 84.7653Z" fill="#CCE4FF"/>
<path d="M98.198 103.912L66.5015 122.219V56.5266L98.198 38.2211V103.912Z" fill="#93ACC8"/>
<path d="M2.39349 51.768L31.2749 68.0543L31.7277 67.8062L31.7277 39.8015L3.00312 23.5945L2.39349 23.7454L2.39349 51.768ZM32.1798 69.0849L1.94141 52.0231L1.94141 22.4846L32.1798 39.5464V69.0849Z" fill="#5956E9"/>
<path d="M2.84106 23.4872L2.3938 23.7454L31.2752 40.0442V68.0543L31.7272 67.8062L31.7272 39.7883L2.84106 23.4872Z" fill="#32BEFF"/>
<path d="M34.6687 70.0477L63.5493 86.3348L64.0022 86.0859V58.0821L35.2775 41.8751L34.6687 42.0252V70.0477ZM64.455 87.3647L34.2166 70.3036V40.7652L64.455 57.827V87.3647Z" fill="#5956E9"/>
<path d="M35.1154 41.7678L34.6689 42.0252L63.5495 58.324V86.3348L64.0024 86.0859V58.0688L35.1154 41.7678Z" fill="#32BEFF"/>
<path d="M2.39367 83.1522L31.2751 99.4393L31.7279 99.1905L31.7279 71.1866L3.0033 54.9788L2.39367 55.1297L2.39367 83.1522ZM32.18 100.469L1.94159 83.4081L1.94159 53.8697L32.18 70.9307V100.469Z" fill="#5956E9"/>
<path d="M2.84125 54.8715L2.39398 55.1297L31.2754 71.4285V99.4393L31.7274 99.1905L31.7274 71.1734L2.84125 54.8715Z" fill="#32BEFF"/>
<path d="M34.6688 101.433L63.5494 117.72L64.0023 117.471V89.4672L35.2776 73.2595L34.6688 73.4103V101.433ZM64.4551 118.75L34.2167 101.689V72.1503L64.4551 89.2113V118.75Z" fill="#5956E9"/>
<path d="M35.1155 73.1521L34.669 73.4103L63.5496 89.7091V117.72L64.0025 117.471V89.454L35.1155 73.1521Z" fill="#32BEFF"/>
<path d="M26.4182 60.4613L28.0263 61.369V46.0246L26.4182 45.1169V60.4613Z" fill="#6768EC"/>
<path d="M27.6641 44.4135L26.4182 45.1168L28.0263 46.0248L29.2586 45.3137L27.6641 44.4135Z" fill="#93ACC8"/>
<path d="M29.2578 60.6575L28.0255 61.3691V46.0247L29.2578 45.3138V60.6575Z" fill="#B3CAE3"/>
<path d="M36.684 66.2585L38.2928 67.1662V51.8218L36.684 50.9149V66.2585Z" fill="#6768EC"/>
<path d="M37.9305 50.211L36.6839 50.9144L38.2927 51.8216L39.5243 51.1105L37.9305 50.211Z" fill="#93ACC8"/>
<path d="M39.5238 66.4544L38.2923 67.1661V51.8217L39.5238 51.1108V66.4544Z" fill="#B3CAE3"/>
<path d="M26.4182 90.2099L28.0263 91.1176V75.774L26.4182 74.8662V90.2099Z" fill="#6768EC"/>
<path d="M27.6642 74.1627L26.4183 74.866L28.0264 75.774L29.2587 75.0621L27.6642 74.1627Z" fill="#93ACC8"/>
<path d="M29.2578 90.4067L28.0255 91.1176V75.774L29.2578 75.0623V90.4067Z" fill="#B3CAE3"/>
<path d="M36.6837 96.0076L38.2925 96.9145V81.5701L36.6837 80.6632V96.0076Z" fill="#6768EC"/>
<path d="M37.9305 79.9596L36.6839 80.6629L38.2927 81.5701L39.5243 80.859L37.9305 79.9596Z" fill="#93ACC8"/>
<path d="M39.5238 96.2037L38.2923 96.9146V81.5703L39.5238 80.8593V96.2037Z" fill="#B3CAE3"/>
<defs>
<filter id="filter0_f_28_181" x="9.25458" y="79.7769" width="127.282" height="87.1694" filterUnits="userSpaceOnUse" color-interpolation-filters="sRGB">
<feFlood flood-opacity="0" result="BackgroundImageFix"/>
<feBlend mode="normal" in="SourceGraphic" in2="BackgroundImageFix" result="shape"/>
<feGaussianBlur stdDeviation="10" result="effect1_foregroundBlur_28_181"/>
</filter>
</defs>
</svg>
